<svg xmlns="http://www.w3.org/2000/svg" viewBox="0 0 1200 630" fill="none">
  <defs><filter id="g" x="-30%" y="-80%" width="160%" height="260%"><feGaussianBlur stdDeviation="3"/></filter></defs>
  <rect width="1200" height="630" fill="#08080a"/>
  <g transform="translate(80,92)">
    <g fill="none" stroke-linecap="round">
      <g filter="url(#g)" stroke-width="5" opacity="0.8">
        <path d="M0 30 q16 -20 32 0 t32 0 t32 0" stroke="#ff5fa2"/>
        <path d="M0 30 q16 20 32 0 t32 0 t32 0" stroke="#22d3ee"/>
        <path d="M0 30 q16 -12 32 0 t32 0 t32 0" stroke="#8b5cf6"/>
      </g>
      <g stroke-width="2.4">
        <path d="M0 30 q16 -20 32 0 t32 0 t32 0" stroke="#ff8fc4"/>
        <path d="M0 30 q16 20 32 0 t32 0 t32 0" stroke="#7ee7f5"/>
      </g>
    </g>
    <text x="140" y="44" font-family="'Plus Jakarta Sans', Arial, sans-serif" font-size="44" font-weight="800" fill="#f5f5f7">Svara</text>
  </g>
  <text x="80" y="336" font-family="'Plus Jakarta Sans', Arial, sans-serif" font-size="128" font-weight="800" fill="rgba(255,255,255,.62)" letter-spacing="-6">Speak.</text>
  <text x="80" y="466" font-family="'Plus Jakarta Sans', Arial, sans-serif" font-size="128" font-weight="800" letter-spacing="-6"><tspan fill="rgba(255,255,255,.62)">It's </tspan><tspan fill="#22d3ee">written.</tspan></text>
  <text x="1120" y="600" text-anchor="end" font-family="'JetBrains Mono', monospace" font-size="20" fill="rgba(255,255,255,.4)">local · private · free · Windows</text>
</svg>
